# AST/ASF file generated using VICON BodyLanguage
# -----------------------------------------------
:version 1.10
:name VICON
:units
  mass 1.0
  length 0.45
  angle deg
:documentation
   .ast/.asf automatically generated from VICON data using
   VICON BodyBuilder and BodyLanguage model FoxedUp or BRILLIANT.MOD
:root
   order TX TY TZ RX RY RZ
   axis XYZ
   position 0 0 0  
   orientation 0 0 0 
:bonedata
  begin
     id 1 
     name lhipjoint
     direction 0.567149 -0.783011 0.255413 
     length 2.28399 
     axis 0 0 0  XYZ
  end
  begin
     id 2 
     name lfemur
     direction 0.34202 -0.939693 0  
     length 7.34031  
     axis 0 0 20  XYZ
    dof rx ry rz
    limits (-160.0 20.0)
           (-70.0 70.0)
           (-60.0 70.0)
  end
  begin
     id 3 
     name ltibia
     direction 0.34202 -0.939693 0   
     length 6.9833   
     axis 0 0 20   XYZ
    dof rx
    limits (-10.0 170.0)
  end
  begin
     id 4 
     name lfoot
     direction 0.136498 -0.375025 0.91691   
     length 2.33665   
     axis -90 7.62852e-016 20   XYZ
    dof rx rz
    limits (-45.0 90.0)
           (-70.0 20.0)
  end
  begin
     id 5 
     name ltoes
     direction 1.5367e-011 -4.21617e-011 1   
     length 1.15039   
     axis -90 7.62852e-016 20   XYZ
    dof rx
    limits (-90.0 20.0)
  end
  begin
     id 6 
     name rhipjoint
     direction -0.602854 -0.758518 0.247423   
     length 2.35775  
     axis 0 0 0  XYZ 
  end
  begin
     id 7 
     name rfemur
     direction -0.34202 -0.939693 0   
     length 7.43932   
     axis 0 0 -20   XYZ
    dof rx ry rz
    limits (-160.0 20.0)
           (-70.0 70.0)
           (-70.0 60.0)
  end
  begin
     id 8 
     name rtibia
     direction -0.34202 -0.939693 0   
     length 7.11893   
     axis 0 0 -20   XYZ
    dof rx
    limits (-10.0 170.0)
 end
 begin
     id 9 
     name rfoot
     direction -0.131771 -0.362037 0.922803   
     length 2.53019  
     axis -90 -7.62852e-016 -20   XYZ
    dof rx rz
    limits (-45.0 90.0)
           (-20.0 70.0)
  end
  begin
     id 10 
     name rtoes
     direction -1.53733e-011 -4.21932e-011 1   
     length 1.24596   
     axis -90 -7.62852e-016 -20   XYZ
    dof rx
    limits (-90.0 20.0)
  end
  begin
     id 11 
     name lowerback
     direction 0.0235427 0.999023 -0.0374125   
     length 2.21768   
     axis 0 0 0   XYZ
    dof rx ry rz
    limits (-20.0 45.0)
           (-30.0 30.0)
           (-30.0 30.0)
  end
  begin
     id 12 
     name upperback
     direction 0.0302156 0.996818 -0.073759   
     length 2.20352   
     axis 0 0 0   XYZ
    dof rx ry rz
    limits (-20.0 45.0)
           (-30.0 30.0)
           (-30.0 30.0)
  end
  begin
     id 13 
     name thorax
     direction 0.0187169 0.998235 -0.0563532   
     length 2.22103   
     axis 0 0 0   XYZ
    dof rx ry rz
    limits (-20.0 45.0)
           (-30.0 30.0)
           (-30.0 30.0)
  end
  begin
     id 14 
     name lowerneck
     direction -0.119528 0.987423 0.103481   
     length 1.72948   
     axis 0 0 0   XYZ
    dof rx ry rz
    limits (-20.0 45.0)
           (-30.0 30.0)
           (-30.0 30.0)
  end
  begin
     id 15 
     name upperneck
     direction 0.248049 0.963095 -0.104496   
     length 1.74979   
     axis 0 0 0   XYZ
    dof rx ry rz
    limits (-20.0 45.0)
           (-30.0 30.0)
           (-30.0 30.0)
  end
  begin
     id 16
     name head
     direction 0.0903589 0.994284 -0.056876  
     length 1.78268  
     axis 0 0 0   XYZ
    dof rx ry rz
    limits (-20.0 45.0)
           (-30.0 30.0)
           (-30.0 30.0)
  end
  begin
     id 17 
     name lclavicle
     direction 0.946008 0.242039 -0.215608  
     length 3.80783  
     axis 0 0 0   XYZ
    dof ry rz
    limits (-20.0 10.0)
           (0.0 20.0)
  end
  begin
     id 18 
     name lhumerus
     direction 1 -4.48991e-011 -2.25695e-027   
     length 4.83125   
     axis 180 -30 -90   XYZ
    dof rx ry rz
    limits (-60.0 90.0)
           (-90.0 90.0)
           (-90.0 90.0)
  end
  begin
     id 19
     name lradius
     direction 0.999991 0.00366712 -0.00211721   
     length 3.00391   
     axis 180 -30 -90   XYZ
    dof rx
    limits (-10.0 170.0)
  end
  begin
     id 20
     name lwrist
     direction 0.999991 0.00393016 -0.00141978   
     length 1.50195   
     axis -1.00488e-014 90 90   XYZ
    dof ry
    limits (-180.0 0.0)
 end
  begin
     id 21 
     name lhand
     direction 1 -4.49123e-011 2.72098e-026   
     length 1.2717   
     axis -1.73687e-014 90 90   XYZ
    dof rx rz
    limits (-90.0 90.0)
           (-45.0 45.0)
  end
  begin
     id 22 
     name lfingers
     direction 1 -4.48678e-011 5.4479e-026   
     length 1.02528   
     axis -3.47372e-014 90 90   XYZ
    dof rx
    limits (0.0 90.0)
  end
  begin
     id 23
     name lthumb
     direction 0.707107 -6.34851e-011 0.707107   
     length 1.4721   
     axis -90 45 -1.62303e-014   XYZ
    dof rx rz
    limits (-45.0 45.0)
           (-45.0 45.0)
  end
  begin
     id 24 
     name rclavicle
     direction -0.981723 0.189447 -0.0181673   
     length 3.74989  
     axis 0 0 0   XYZ 
    dof ry rz
    limits (-10.0 20.0)
           (-20.0 0.0)
  end
  begin
     id 25 
     name rhumerus
     direction -1 -4.48985e-011 2.38206e-027  
     length 4.61118   
     axis 180 30 90   XYZ
    dof rx ry rz
    limits (-90.0 60.0)
           (-90.0 90.0)
           (-90.0 90.0)
  end
  begin
     id 26 
     name rradius
     direction -1 -4.48977e-011 7.41019e-027   
     length 2.91491   
     axis 180 30 90   XYZ
    dof rx
    limits (-10.0 170.0)
  end
  begin
     id 27 
     name rwrist
     direction -1 -4.48549e-011 1.3624e-026   
     length 1.45745   
     axis -1.00488e-014 -90 -90   XYZ
    dof ry
    limits (-180.0 0.0)
  end
  begin
     id 28
     name rhand
     direction -1 -4.49107e-011 2.72109e-026   
     length 1.30769   
     axis -1.73687e-014 -90 -90   XYZ
    dof rx rz
    limits (-90.0 90.0)
           (-45.0 45.0)
  end
  begin
     id 29
     name rfingers
     direction -1 -4.48919e-011 5.44468e-026   
     length 1.05429   
     axis -3.47372e-014 -90 -90   XYZ
    dof rx
    limits (0.0 90.0)
  end
  begin
     id 30
     name rthumb
     direction -0.707107 -6.35315e-011 0.707107   
     length 1.51376   
     axis -90 -45 1.62303e-014   XYZ
    dof rx rz
    limits (-45.0 45.0)
           (-45.0 45.0)
  end
:hierarchy
  begin
    root lhipjoint rhipjoint lowerback
    lhipjoint lfemur
    lfemur ltibia
    ltibia lfoot
    lfoot ltoes
    rhipjoint rfemur
    rfemur rtibia
    rtibia rfoot
    rfoot rtoes
    lowerback upperback
    upperback thorax
    thorax lowerneck lclavicle rclavicle
    lowerneck upperneck
    upperneck head
    lclavicle lhumerus
    lhumerus lradius
    lradius lwrist
    lwrist lhand lthumb
    lhand lfingers
    rclavicle rhumerus
    rhumerus rradius
    rradius rwrist
    rwrist rhand rthumb
    rhand rfingers
  end

#!OML:ASF X:\für Bonn\!DataBase\2005_08_11_Bastian_Final\c3d\Bastian.ASF
:FULLY-SPECIFIED
:DEGREES
1
root 0.847922 17.025 0.0362693 163.042 -16.8829 -176.451
lowerback 6.49251 -2.49252 1.91208
upperback 8.14401 -4.01754 -0.660056
thorax 4.65809 -2.21466 -1.68048
lowerneck -3.47467 -8.95707 -4.03185
upperneck -2.67842 -11.9722 7.94507
head 0.524091 -6.03349 2.96003
rclavicle 3.00165e-014 -1.63003e-014
rhumerus -12.8554 42.9873 -75.3584
rradius 65.9027
rwrist -9.64147
rhand -42.2306 16.3164
rfingers 7.12502
rthumb -15.1173 -13.1115
lclavicle 3.00165e-014 -1.63003e-014
lhumerus -9.36309 -32.3609 92.7621
lradius 70.6021
lwrist -3.8446
lhand -46.377 -13.9016
lfingers 7.12502
lthumb -19.1082 15.1797
rfemur -4.92095 -6.76368 23.1022
rtibia 57.2033
rfoot -13.0456 -12.591
rtoes -8.8856
lfemur 4.02872 -1.55105 -15.5924
ltibia 36.1116
lfoot -16.0958 -11.5065
ltoes -8.11589
2
root 0.82178 17.0312 0.0748712 162.671 -17.1712 -176.525
lowerback 7.26816 -2.67086 1.70004
upperback 8.3924 -4.31922 -0.605746
thorax 4.49813 -2.40913 -1.46131
lowerneck -3.6723 -8.96378 -4.18511
upperneck -2.75018 -11.9751 8.08608
head 0.555551 -6.03417 3.02408
rclavicle 4.81556e-014 -1.98785e-015
rhumerus -14.5183 42.5635 -77.195
rradius 63.4157
rwrist -8.82668
rhand -42.4995 15.1477
rfingers 7.12502
rthumb -15.3763 -14.2605
lclavicle 4.81556e-014 -1.98785e-015
lhumerus -7.16411 -32.4821 92.4104
lradius 72.4464
lwrist -4.16495
lhand -46.6554 -14.2209
lfingers 7.12502
lthumb -19.376 14.8337
rfemur -6.56031 -6.76414 22.5854
rtibia 59.9502
rfoot -10.1526 -11.9833
rtoes -9.21405
lfemur 4.33173 -1.53924 -15.8236
ltibia 35.9667
lfoot -15.7786 -11.702
ltoes -7.18523
3
root 0.796253 17.0261 0.118893 162.269 -17.4174 -176.548
lowerback 8.1235 -2.85268 1.53035
upperback 8.62992 -4.63022 -0.527705
thorax 4.28697 -2.60983 -1.22967
lowerneck -3.85586 -8.94959 -4.34382
upperneck -2.80329 -11.949 8.21099
head 0.588024 -6.01965 3.08547
rclavicle -1.38652e-014 -3.97569e-015
rhumerus -16.0897 42.1202 -78.8982
rradius 61.1128
rwrist -8.40722
rhand -42.5673 14.0808
rfingers 7.12502
rthumb -15.4416 -15.3224
lclavicle -1.38652e-014 -3.97569e-015
lhumerus -4.93045 -32.4957 92.045
lradius 74.1776
lwrist -4.71572
lhand -47.0191 -14.5615
lfingers 7.12502
lthumb -19.7257 14.4577
rfemur -8.32509 -6.7429 22.1108
rtibia 62.735
rfoot -6.69786 -11.3053
rtoes -9.444
lfemur 4.64011 -1.56796 -16.0325
ltibia 35.8254
lfoot -15.4909 -11.7629
ltoes -6.57663
4
root 0.771118 17.0175 0.165222 161.843 -17.6281 -176.608
lowerback 9.04407 -3.01359 1.33266
upperback 8.89461 -4.92713 -0.458627
thorax 4.07687 -2.80949 -0.983704
lowerneck -4.10182 -8.92771 -4.47806
upperneck -2.86907 -11.9129 8.33111
head 0.624538 -6.00027 3.13893
rclavicle 5.18828e-014 -9.54166e-015
rhumerus -17.527 41.7106 -80.4668
rradius 58.9625
rwrist -8.43178
rhand -42.5558 13.0633
rfingers 7.12502
rthumb -15.4305 -16.3408
lclavicle 5.18828e-014 -9.54166e-015
lhumerus -2.52565 -32.4731 91.5831
lradius 75.7506
lwrist -5.40443
lhand -47.4209 -14.9056
lfingers 7.12502
lthumb -20.1118 14.0734
rfemur -10.1496 -6.63484 21.6023
rtibia 65.5258
rfoot -2.92369 -10.5973
rtoes -9.86173
lfemur 5.02176 -1.67513 -16.3381
ltibia 35.6614
lfoot -15.2663 -11.6311
ltoes -6.46164
